<?xml version="1.0" encoding="utf-8"?>
<!-- Generator: Adobe Illustrator 18.0.0, SVG Export Plug-In . SVG Version: 6.00 Build 0)  -->
<!DOCTYPE svg PUBLIC "-//W3C//DTD SVG 1.1//EN" "http://www.w3.org/Graphics/SVG/1.1/DTD/svg11.dtd">
<svg version="1.1" id="圖層_1" xmlns="http://www.w3.org/2000/svg" xmlns:xlink="http://www.w3.org/1999/xlink" x="0px" y="0px"
	 viewBox="0 153 313.1 289.6" enable-background="new 0 153 313.1 289.6" xml:space="preserve">
<g id="圖層_8">
	<g>
		<g>
			<path fill="#FFFFFF" d="M156,153c10.4,1.4,20.8,2.3,30.3,5.9c50.6,16.7,82.7,49.7,98.1,100.8c0.9,4.1,0.9,4.5-3.6,4.5
				c-5,0-10.4,0-15.4,0c-3.2,0-4.5-0.9-5.4-4.1c-13.1-38.4-39.3-65.6-78.2-78.2C111.2,158.4,36.2,204,24.4,277.7
				c-10.4,66,33.5,127.1,99,139.7c59.2,10.9,118.5-24.4,137-81.8c0.9-3.6,3.2-5,6.3-4.5c5,0.5,9.5,0,14,0c4.1,0,4.5,0.5,3.6,4.5
				c-5.9,20.8-15.8,40.2-29.8,56.5c-24.4,28-55.2,45.2-92.7,49.3c-41.1,5-78.2-5.9-110.3-32.6c-28.5-23.5-45.2-53.8-50.6-90
				c-0.5-4.5-0.9-9.5-1.4-13.6c0-5,0-9.5,0-14C0,285.9,0.5,280,1.4,275c12.2-60.6,47-99,104.9-117.1c9-3.2,18.1-4.1,27.6-5
				C141.1,153,148.8,153,156,153z"/>
			<path fill="#FFFFFF" d="M276.3,324.8c-0.9-0.5-1.8-0.9-2.3-1.4c-11.8-7.7-23.5-16.3-35.3-24c-2.3-1.4-2.3-2.3,0-4.5
				c11.8-7.7,23.5-16.3,35.3-24c1.8-1.4,3.6-1.4,5.4,0c10.4,7.7,20.8,16.3,32.1,24c1.8,1.4,2.3,2.3,0.5,4.5
				c-10.9,7.7-21.7,16.3-32.1,24.4C277.6,324.3,277.2,324.3,276.3,324.8z M274,297.2c0-5.9,0-11.8,0-17.6c0-1.8-0.5-3.2-2.3-1.4
				c-8.1,5.9-16.7,11.8-24.4,18.1c-1.8,1.4-1.4,2.3,0,3.6c8.1,5.4,16.3,10.9,24.4,16.3c2.3,1.4,2.3,0.5,2.3-1.4
				C274,308,274,303.1,274,297.2z"/>
			<path fill="#FFFFFF" d="M214.8,245.2c0,10.4-8.1,19-19,18.5c-10.4,0-18.5-8.1-18.5-19c0-10.9,8.1-19,18.5-19
				C206.6,225.7,214.8,234.8,214.8,245.2z"/>
		</g>
	</g>
</g>
</svg>
