<?xml version="1.0" encoding="utf-8"?>
<!-- Generator: Adobe Illustrator 18.0.0, SVG Export Plug-In . SVG Version: 6.00 Build 0)  -->
<!DOCTYPE svg PUBLIC "-//W3C//DTD SVG 1.1//EN" "http://www.w3.org/Graphics/SVG/1.1/DTD/svg11.dtd">
<svg version="1.1" id="圖層_1" xmlns="http://www.w3.org/2000/svg" xmlns:xlink="http://www.w3.org/1999/xlink" x="0px" y="0px"
	 viewBox="0 160 500 179" enable-background="new 0 160 500 179" xml:space="preserve">
<g id="圖層_1_1_" display="none">
	
		<image display="inline" overflow="visible" enable-background="new    " width="743" height="1007" xlink:href="A8986BA9ECA21470.jpeg"  transform="matrix(1.2438 0 0 1.2476 148.8164 210.3483)">
	</image>
</g>
<g id="圖層_8">
	<g>
		<g>
			<path fill="#FFFFFF" d="M95.5,166.2c5.9,0.8,11.9,1.4,17.5,3.4c29.1,9.6,47.7,28.8,56.5,58.2c0.6,2.3,0.6,2.5-2,2.5
				c-2.8,0-5.9,0-8.8,0c-1.7,0-2.5-0.6-3.1-2.3c-7.6-22.3-22.6-37.9-45.2-45.2c-40.7-13.6-84.2,13-91,55.4
				c-5.9,38.1,19.2,73.4,57.1,80.5c34.2,6.2,68.4-14.1,79.1-47.2c0.6-2,1.7-2.8,3.7-2.5c2.8,0.3,5.6,0,8.2,0c2.3,0,2.5,0.3,2,2.5
				c-3.4,12.1-9,23.2-17.2,32.5c-14.1,16.1-31.9,26-53.4,28.5c-23.7,2.8-45.2-3.4-63.6-18.9c-16.4-13.6-26-31.1-29.1-52
				c-0.3-2.5-0.6-5.4-0.8-7.9c0-2.8,0-5.6,0-8.2c0.3-3.1,0.6-6.5,1.1-9.3c6.8-34.5,26.8-56.8,60.2-67.2c5.1-1.7,10.5-2.3,15.8-2.8
				C86.7,166.2,91.2,166.2,95.5,166.2z"/>
			<path fill="#FFFFFF" d="M164.7,265.4c-0.6-0.3-1.1-0.6-1.4-0.8c-6.8-4.5-13.6-9.3-20.3-13.8c-1.4-0.8-1.4-1.4,0-2.5
				c6.8-4.5,13.6-9.3,20.3-13.8c1.1-0.8,2-0.8,3.1,0c5.9,4.5,12.1,9.3,18.4,13.8c1.1,0.8,1.4,1.4,0.3,2.5
				c-6.2,4.5-12.4,9.3-18.6,14.1C165.5,265.1,165.3,265.1,164.7,265.4z M163.6,249.3c0-3.4,0-6.8,0-10.2c0-1.1-0.3-1.7-1.4-0.8
				c-4.8,3.4-9.6,6.8-14.1,10.5c-1.1,0.8-0.8,1.4,0,2c4.8,3.1,9.3,6.2,14.1,9.3c1.4,0.8,1.4,0.3,1.4-0.8
				C163.6,255.8,163.6,252.7,163.6,249.3z"/>
			<path fill="#FFFFFF" d="M129.4,219.4c0,5.9-4.8,11-11,10.7c-5.9,0-10.7-4.8-10.7-11s4.8-11,10.7-11
				C124.6,208.3,129.4,213.4,129.4,219.4z"/>
		</g>
	</g>
	<g>
		<path fill="#FFFFFF" d="M233.1,232.9v6.8c-2.5-2-5.4-3.1-8.2-3.1c-3.4,0-6.2,1.1-8.8,3.4c-2.8,2.5-4.2,5.9-4.2,9.9s1.4,7.1,4.2,9
			c3.1,2.5,5.9,3.7,8.8,3.7c1.4,0,2.8-0.3,4.2-0.8s2.5-1.4,4-2.3v7.1c-2.8,1.4-5.6,2-8.5,2c-4.5,0-8.8-1.7-12.7-5.4
			c-2-1.7-3.4-4-4.2-6.2c-1.1-2.3-1.4-4.8-1.4-7.6c0-3.1,0.6-5.9,2-8.5c1.1-2.5,3.1-4.8,5.4-6.5c3.7-2.5,7.3-4,11-4
			C227.1,230.4,229.9,231.2,233.1,232.9z"/>
		<path fill="#FFFFFF" d="M274.9,246.5l9,21.5h-7.6l-4-8.5c-1.7,2.8-4,4.8-6.8,6.5s-5.9,2.5-9.3,2.5c-5.4,0-9.9-2-13.6-5.6
			c-3.7-3.7-5.6-8.2-5.6-13.6c0-5.1,2-9.6,5.6-13.3c3.7-3.7,8.2-5.4,13.6-5.4c4.8,0,8.8,1.4,12.1,4.5
			C272,238,274.3,241.9,274.9,246.5z M256.5,236.6c-3.7,0-6.5,1.1-9,3.7c-2.5,2.5-4,5.6-4,9c0,3.7,1.1,6.8,3.7,9.3
			c2.5,2.5,5.6,3.7,9.3,3.7c3.7,0,6.8-1.4,9-4c2.5-2.5,3.7-5.6,3.7-9.3c0-3.4-1.1-6.5-3.7-8.8C263,237.7,259.9,236.6,256.5,236.6z"
			/>
		<path fill="#FFFFFF" d="M301.1,230.1c2.3,0,4.5,0.6,6.5,1.4c2,1.1,3.7,2.3,5.1,4c3.1-3.7,7.1-5.6,12.1-5.6c4,0,7.3,1.4,10.2,4
			c2.8,2.8,4.2,5.9,4.2,9.9v24.3h-5.9v-21.5c0-2.5-0.8-5.1-2.5-7.1s-3.7-2.8-6.2-2.8s-4.8,1.1-6.5,3.1s-2.5,4.2-2.5,6.8v21.5h-5.9
			v-21.8c0-2.5-0.8-5.1-2.5-7.1s-3.7-2.8-6.2-2.8s-4.8,0.8-6.8,2.5c-2,1.7-2.8,4-2.8,6.5v22.6h-5.9v-24.9c0-4,1.4-7.1,4.5-9.6
			C293.5,231.2,297.2,230.1,301.1,230.1z"/>
		<path fill="#FFFFFF" d="M347.7,290.8v-41c0-5.9,2-10.7,5.6-14.4c3.7-3.4,8.2-4.8,13.6-4.8c5.1,0,9.6,2,13.3,5.6
			c3.7,3.7,5.4,8.2,5.4,13.6c0,5.1-1.7,9.6-5.4,13.3c-3.7,3.7-8.2,5.4-13.3,5.4c-3.4,0-6.2-0.6-8.5-1.4c-0.8-0.3-1.7-0.8-2.5-1.4
			c-0.6-0.3-0.8,0-1.1,0.6c-0.3,0.6-0.3,1.4-0.3,2.3c0,0.3,0,0.6,0,0.8c0,0,0,0,0,0.3v21.8h-6.8V290.8z M366.9,236.6
			c-3.4,0-6.5,1.1-9,3.7c-2.5,2.5-4,5.6-4,9c0,3.7,1.1,6.5,3.7,9c2.5,2.5,5.6,4,9,4c3.4,0,6.5-1.4,9-4c2.5-2.5,3.7-5.6,3.7-9.3
			c0-3.4-1.1-6.5-3.7-9C373.7,237.7,370.6,236.6,366.9,236.6z"/>
		<path fill="#FFFFFF" d="M427.1,246.5l9,21.5l-7.6-0.3l-4-8.5c-1.7,2.8-4,4.8-6.8,6.5s-5.9,2.5-9.3,2.5c-5.4,0-9.9-2-13.6-5.6
			c-3.7-3.7-5.6-8.2-5.6-13.6c0-5.1,2-9.6,5.6-13.3c3.7-3.7,8.2-5.4,13.6-5.4c4.8,0,8.8,1.4,12.1,4.5
			C424.3,238,426.3,241.9,427.1,246.5z M408.8,236.6c-3.7,0-6.5,1.1-9,3.7c-2.5,2.5-4,5.6-4,9c0,3.7,1.1,6.8,3.7,9.3
			c2.5,2.5,5.6,3.7,9.3,3.7c3.7,0,6.8-1.4,9-4c2.5-2.5,3.7-5.6,3.7-9.3c0-3.4-1.1-6.5-3.7-8.8C415.3,237.7,412.1,236.6,408.8,236.6z
			"/>
		<path fill="#FFFFFF" d="M453.1,238c-0.6-1.1-1.4-1.7-2.3-2.5c-0.8-0.6-2-0.8-2.8-0.8c-1.1,0.3-2.3,0.8-2.8,1.7
			c-0.6,1.1-0.8,2.3-0.8,3.4c0,1.7,2.8,3.7,8.8,5.4c5.6,2,8.8,5.4,8.8,10.5c0,3.7-1.1,6.5-3.7,8.8c-2.5,2.3-5.6,3.4-9,3.4
			c-4,0-7.1-1.4-9.6-4c-2.5-2.5-4-5.9-4-10.2l6.5,2.3c-0.3,2.3,0.3,4,1.7,4.8c1.4,1.1,3.1,1.4,5.1,1.4s3.7-0.6,5.1-1.7
			c1.4-1.1,2.3-2.8,2.3-4.8c0-2.3-3.1-4.2-9-6.2c-5.9-2-9-5.1-9-9c0-2.8,1.1-5.4,3.1-7.3c2-2,4.5-3.1,7.6-3.1c2.8,0,5.1,0.8,7.1,2.5
			s3.1,4,3.4,6.5L453.1,238z"/>
		<path fill="#FFFFFF" d="M482.2,238c-0.6-1.1-1.4-1.7-2.3-2.5c-0.8-0.6-2-0.8-2.8-0.8c-1.1,0.3-2.3,0.8-2.8,1.7
			c-0.6,1.1-0.8,2.3-0.8,3.4c0,1.7,2.8,3.7,8.8,5.4c5.6,2,8.8,5.4,8.8,10.5c0,3.7-1.1,6.5-3.7,8.8c-2.5,2.3-5.6,3.4-9,3.4
			c-4,0-7.1-1.4-9.6-4c-2.5-2.5-4-5.9-4-10.2l6.5,2.3c-0.3,2.3,0.3,4,1.7,4.8c1.4,1.1,3.1,1.4,5.1,1.4s3.7-0.6,5.1-1.7
			c1.4-1.1,2.3-2.8,2.3-4.8c0-2.3-3.1-4.2-9-6.2c-5.9-2-9-5.1-9-9c0-2.8,1.1-5.4,3.1-7.3c2-2,4.5-3.1,7.6-3.1c2.8,0,5.1,0.8,7.1,2.5
			c2,1.7,3.1,4,3.4,6.5L482.2,238z"/>
	</g>
</g>
</svg>
